# xmcd
#
# Track frame offsets:
#	150
#	26469
#	50683
#	79193
#	105791
#	134662
#	161694
#	189373
#	215973
#	239169
#	263380
#	286570
#	313034
#	336228
#
# Disc length: 4799 seconds
# Revision: 0
# Processed by: cddbd v1.5.2PL0 Copyright (c) Steve Scherf et al.
# Submitted via: dBpowerAMP V12.0
#
DISCID=c612bd0e
DTITLE=Franz Kafka - Der Prozess 4
DYEAR=2008
DGENRE=Unbekanntes Genre
TTITLE0=Advokat - Fabrikant - Maler
TTITLE1=Advokat - Fabrikant - Maler
TTITLE2=Advokat - Fabrikant - Maler
TTITLE3=Advokat - Fabrikant - Maler
TTITLE4=Advokat - Fabrikant - Maler
TTITLE5=Advokat - Fabrikant - Maler
TTITLE6=Advokat - Fabrikant - Maler
TTITLE7=Advokat - Fabrikant - Maler
TTITLE8=Advokat - Fabrikant - Maler
TTITLE9=Advokat - Fabrikant - Maler
TTITLE10=Advokat - Fabrikant - Maler
TTITLE11=Advokat - Fabrikant - Maler
TTITLE12=Advokat - Fabrikant - Maler
TTITLE13=Advokat - Fabrikant - Maler
EXTD=
EXTT0=
EXTT1=
EXTT2=
EXTT3=
EXTT4=
EXTT5=
EXTT6=
EXTT7=
EXTT8=
EXTT9=
EXTT10=
EXTT11=
EXTT12=
EXTT13=
PLAYORDER=
